<?xml version="1.0" standalone="no"?>
<!DOCTYPE svg PUBLIC "-//W3C//DTD SVG 20010904//EN"
 "http://www.w3.org/TR/2001/REC-SVG-20010904/DTD/svg10.dtd">
<svg version="1.0" xmlns="http://www.w3.org/2000/svg"
 width="2742.000000pt" height="278.000000pt" viewBox="0 0 2742.000000 278.000000"
 preserveAspectRatio="xMidYMid meet">

<g transform="translate(0.000000,278.000000) scale(0.100000,-0.100000)"
fill="#fff" stroke="none">
<path d="M590 2736 c0 -66 27 -207 56 -294 114 -334 261 -501 814 -922 485
-370 654 -540 784 -790 95 -184 133 -334 143 -567 3 -84 8 -153 10 -153 17 0
146 58 180 81 71 49 135 121 167 189 l31 65 3 612 c2 577 1 613 -15 621 -10 5
-94 35 -188 67 -176 59 -362 141 -438 194 -218 149 -348 351 -447 691 -65 222
-68 230 -97 241 -14 5 -242 9 -514 9 l-489 0 0 -44z"/>
<path d="M1866 2731 c41 -138 88 -231 168 -330 136 -169 364 -282 656 -326 47
-7 86 -12 86 -11 1 0 5 162 9 359 l7 357 -471 0 -470 0 15 -49z"/>
<path d="M313 2729 c-192 -101 -281 -215 -301 -389 -5 -41 -7 -310 -4 -596 l4
-522 77 -22 c185 -53 404 -160 551 -268 141 -104 280 -262 358 -407 38 -70 91
-205 137 -345 25 -75 53 -144 63 -154 17 -14 68 -16 521 -16 l503 0 -7 78
c-10 114 -48 251 -98 355 -109 227 -287 416 -702 746 -469 372 -603 494 -737
671 -172 227 -257 495 -258 808 0 82 -3 102 -15 102 -8 0 -49 -18 -92 -41z"/>
<path d="M4375 2580 c-426 -7 -462 -10 -606 -63 -206 -74 -323 -197 -373 -393
-35 -135 -38 -386 -6 -519 35 -147 133 -271 266 -338 168 -84 246 -94 774
-103 369 -5 435 -9 499 -25 87 -22 115 -38 142 -82 46 -75 56 -220 22 -297
-26 -59 -48 -77 -130 -109 l-68 -26 -717 -3 -718 -3 0 -214 0 -215 709 0 c728
0 848 5 988 40 114 29 257 102 319 165 62 61 115 167 141 280 25 111 25 359 0
468 -51 215 -181 350 -394 409 -74 20 -107 22 -593 28 -510 5 -516 6 -574 29
-124 50 -175 134 -163 272 10 115 49 179 139 225 103 53 121 54 831 54 l657 0
0 215 0 215 -372 -2 c-205 -1 -553 -5 -773 -8z"/>
<path d="M5930 1390 l0 -1200 265 0 265 0 0 1200 0 1200 -265 0 -265 0 0
-1200z"/>
<path d="M6803 1763 c4 -794 5 -833 25 -940 12 -62 35 -142 52 -179 79 -176
246 -336 411 -393 124 -44 239 -53 712 -58 l447 -5 0 201 0 201 -307 -6 c-420
-9 -552 6 -677 80 -87 51 -136 184 -156 422 -5 66 -10 431 -10 812 l0 692
-251 0 -250 0 4 -827z"/>
<path d="M10795 2580 c-426 -7 -462 -10 -606 -63 -206 -74 -323 -197 -373
-393 -35 -135 -38 -386 -6 -519 35 -147 133 -271 266 -338 168 -84 246 -94
774 -103 369 -5 435 -9 499 -25 87 -22 115 -38 142 -82 46 -75 56 -220 22
-297 -26 -59 -48 -77 -130 -109 l-68 -26 -717 -3 -718 -3 0 -214 0 -215 709 0
c728 0 848 5 988 40 114 29 257 102 319 165 62 61 115 167 141 280 25 111 25
359 0 468 -51 215 -181 350 -394 409 -74 20 -107 22 -593 28 -510 5 -516 6
-574 29 -124 50 -175 134 -163 272 10 115 49 179 139 225 103 53 121 54 831
54 l657 0 0 215 0 215 -372 -2 c-205 -1 -553 -5 -773 -8z"/>
<path d="M12350 1390 l0 -1200 265 0 265 0 0 1200 0 1200 -265 0 -265 0 0
-1200z"/>
<path d="M14155 2580 c-426 -7 -462 -10 -606 -63 -206 -74 -323 -197 -373
-393 -35 -135 -38 -386 -6 -519 35 -147 133 -271 266 -338 168 -84 246 -94
774 -103 369 -5 435 -9 499 -25 87 -22 115 -38 142 -82 46 -75 56 -220 22
-297 -26 -59 -48 -77 -130 -109 l-68 -26 -717 -3 -718 -3 0 -214 0 -215 709 0
c728 0 848 5 988 40 114 29 257 102 319 165 62 61 115 167 141 280 25 111 25
359 0 468 -51 215 -181 350 -394 409 -74 20 -107 22 -593 28 -510 5 -516 6
-574 29 -124 50 -175 134 -163 272 10 115 49 179 139 225 103 53 121 54 831
54 l657 0 0 215 0 215 -372 -2 c-205 -1 -553 -5 -773 -8z"/>
<path d="M18705 2579 c-283 -6 -319 -9 -416 -32 -445 -106 -673 -390 -744
-926 -19 -141 -19 -409 0 -536 54 -358 193 -597 437 -748 95 -60 188 -95 318
-119 95 -19 158 -21 648 -25 l542 -5 0 211 0 212 -427 -7 c-611 -10 -692 2
-809 121 -99 101 -147 225 -156 400 l-3 70 698 3 697 2 0 205 0 205 -695 0
-695 0 0 33 c0 43 34 181 58 237 43 100 132 192 229 237 103 48 169 53 654 53
l449 0 0 210 0 210 -237 -2 c-131 -1 -377 -5 -548 -9z"/>
<path d="M19850 1390 l0 -1200 255 0 255 0 0 23 c0 12 -11 431 -25 931 -13
501 -23 911 -21 913 2 2 145 -417 317 -932 l314 -935 269 2 268 3 302 917
c166 504 304 919 307 922 3 3 4 -47 2 -112 -8 -275 -33 -1526 -33 -1624 l0
-108 245 0 245 0 0 1200 0 1200 -370 0 -369 0 -303 -915 c-167 -503 -305 -915
-308 -915 -3 0 -142 412 -308 915 l-303 915 -369 0 -370 0 0 -1200z"/>
<path d="M23630 2570 c-14 -27 -991 -2341 -997 -2362 -5 -17 12 -18 258 -18
l264 0 105 283 105 282 524 0 524 0 108 -280 107 -280 281 -3 281 -2 -9 22
c-11 28 -984 2311 -1002 2351 l-12 27 -263 0 c-251 0 -264 -1 -274 -20z m440
-933 c95 -241 170 -440 168 -443 -3 -2 -162 -3 -354 -2 l-350 3 166 435 c91
239 169 444 173 455 7 17 10 18 16 5 5 -8 86 -212 181 -453z"/>
<path d="M26145 2580 c-426 -7 -462 -10 -606 -63 -206 -74 -323 -197 -373
-393 -35 -135 -38 -386 -6 -519 35 -147 133 -271 266 -338 168 -84 246 -94
774 -103 369 -5 435 -9 499 -25 87 -22 115 -38 142 -82 46 -75 56 -220 22
-297 -26 -59 -48 -77 -130 -109 l-68 -26 -717 -3 -718 -3 0 -214 0 -215 709 0
c728 0 848 5 988 40 114 29 257 102 319 165 62 61 115 167 141 280 25 111 25
359 0 468 -51 215 -181 350 -394 409 -74 20 -107 22 -593 28 -510 5 -516 6
-574 29 -124 50 -175 134 -163 272 10 115 49 179 139 225 103 53 121 54 831
54 l657 0 0 215 0 215 -372 -2 c-205 -1 -553 -5 -773 -8z"/>
<path d="M15460 2375 l0 -205 385 0 385 0 0 -990 0 -990 260 0 260 0 0 990 0
990 390 0 390 0 0 205 0 205 -1035 0 -1035 0 0 -205z"/>
<path d="M4 393 l-1 -380 458 -7 c343 -6 463 -5 480 4 19 11 21 18 15 57 -13
94 -162 324 -268 415 -167 141 -444 269 -618 285 l-65 5 -1 -379z"/>
</g>
</svg>
